<?xml version="1.0" encoding="utf-8"?>
<!-- Generator: Adobe Illustrator 16.0.0, SVG Export Plug-In . SVG Version: 6.00 Build 0)  -->
<!DOCTYPE svg PUBLIC "-//W3C//DTD SVG 1.1//EN" "http://www.w3.org/Graphics/SVG/1.1/DTD/svg11.dtd">
<svg version="1.1" id="WSM_x5F_Logo_x5F_2013" xmlns="http://www.w3.org/2000/svg" xmlns:xlink="http://www.w3.org/1999/xlink"
	 x="0px" y="0px" viewBox="-29.5 762.5 60 60" enable-background="new -29.5 762.5 60 60"
	 xml:space="preserve">
<circle fill="#569BBE" cx="0.5" cy="792.5" r="28.307"/>
<path fill="#FFFFFF" d="M18.78,784.253c-2.359,0-4.076,1.133-4.692,2.78h-0.063c-0.616-1.647-2.328-2.78-4.692-2.78
	c-3.07,0-5.725,2.296-5.725,6.277v0.956c-0.245-0.068-0.497-0.132-0.767-0.182l-3.396-0.647c-1.284-0.228-2.02-0.704-2.032-1.629
	v-0.038c0.012-1.253,1.427-1.957,2.875-1.957c0.787,0,1.761,0.189,2.856,0.805c0.333-0.993,0.855-1.83,1.497-2.496
	c-1.466-0.749-2.893-1.089-4.447-1.089c-1.05,0-1.981,0.183-2.78,0.497l0,0c0,0,0,0-0.007,0c-0.793,0.308-1.459,0.755-1.981,1.283
	c-0.007,0.006-0.013,0.012-0.019,0.019c-0.339,0.353-0.616,0.735-0.83,1.15c-0.007,0.021-0.019,0.033-0.025,0.051
	c-0.208,0.41-0.352,0.844-0.434,1.297c-0.006,0.019-0.006,0.036-0.006,0.056c-0.038,0.221-0.063,0.446-0.063,0.674l0,0l0,0
	c0,0.031-0.006,0.063-0.006,0.095c0,0.044,0.006,0.088,0.006,0.131v4.737c0,1.875-1.195,2.944-2.591,2.944
	c-1.617,0-2.818-0.969-2.818-3.396v-9.328h-3.365v9.315c0,2.429-1.195,3.397-2.818,3.397c-1.391,0-2.585-1.07-2.585-2.945v-9.768
	h-3.366v9.8c0,3.982,2.654,6.277,5.724,6.277c2.359,0,4.077-1.132,4.693-2.779h0.068c0.617,1.647,2.328,2.779,4.693,2.779
	c3.069,0,5.724-2.295,5.724-6.277v-1.001c0.642,0.215,1.384,0.397,2.258,0.561l1.906,0.358c1.208,0.221,2.007,0.762,2.032,1.761
	v0.082c-0.025,0.868-1.182,1.944-3.101,1.944c-0.899,0-1.856-0.271-2.736-0.704c-0.402,1.03-1.007,1.868-1.736,2.522
	c1.34,0.629,2.754,0.962,4.309,0.962c3.396,0,5.322-1.522,6.146-3.227c0.006-0.013,0.006-0.02,0.013-0.032
	c0.201-0.415,0.333-0.843,0.403-1.264c0-0.007,0-0.007,0-0.013c0.038-0.208,0.057-0.415,0.063-0.623l0,0l0,0
	c0-0.038,0.006-0.082,0.006-0.119c0-0.025-0.006-0.051-0.006-0.082v-4.838c0-1.875,1.195-2.943,2.584-2.943
	c1.618,0,2.818,0.969,2.818,3.396v9.316h3.365v-9.311c0-2.429,1.195-3.396,2.812-3.396c1.39,0,2.592,1.068,2.592,2.943v9.77h3.365
	v-9.801C24.505,786.549,21.851,784.253,18.78,784.253z"/>
</svg>
