<?xml version="1.0" encoding="utf-8"?>
<!-- Generator: Adobe Illustrator 16.0.0, SVG Export Plug-In . SVG Version: 6.00 Build 0)  -->
<!DOCTYPE svg PUBLIC "-//W3C//DTD SVG 1.1//EN" "http://www.w3.org/Graphics/SVG/1.1/DTD/svg11.dtd">
<svg version="1.1" id="WSM_x5F_Logo_x5F_2013" xmlns="http://www.w3.org/2000/svg" xmlns:xlink="http://www.w3.org/1999/xlink"
	 x="0px" y="0px" viewBox="-69.5 762.5 140 60" enable-background="new -69.5 762.5 140 60"
	 xml:space="preserve">
<path fill="#A4CF5F" d="M-60.034,768.077h2.567v1.207c0.862-1.079,2.393-1.53,3.41-1.53c1.018,0,2.284,0.391,2.999,1.656
	c0.431-0.606,1.55-1.656,3.45-1.656c1.078,0,2.116,0.302,2.843,1.097c0.863,0.951,0.843,2.09,0.843,3.215v6.793h-2.567v-5.949
	c0-1.012,0.148-2.716-1.812-2.716c-0.823,0-1.49,0.451-1.833,1.012c-0.499,0.794-0.566,1.656-0.566,2.586v5.067h-2.567v-6.018
	c0-0.775,0-1.059-0.088-1.381c-0.195-0.714-0.754-1.273-1.657-1.273c-0.775,0-1.531,0.452-1.982,1.253
	c-0.452,0.843-0.472,1.854-0.472,2.912v4.507h-2.567V768.077L-60.034,768.077z M-41.813,765.092c0,0.796,0.633,1.434,1.408,1.434
	c0.775,0,1.409-0.638,1.409-1.434c0-0.795-0.633-1.436-1.409-1.436C-41.18,763.656-41.813,764.297-41.813,765.092z M-39.118,768.077
	v10.781h-2.567v-10.781H-39.118z M-26.988,768.077v8.84c-0.02,2.137-0.02,2.999-0.687,3.902c-0.607,0.795-1.941,1.637-4.488,1.637
	c-3.841,0-4.595-1.656-4.959-3.381h2.843c0.196,0.626,0.647,1.333,2.197,1.333c1.314,0,1.901-0.519,2.137-0.863
	c0.391-0.538,0.391-1.165,0.391-2.479c-0.56,0.519-1.685,1.166-3.235,1.166c-2.546,0-4.676-1.726-4.676-5.155
	c0-4.01,2.871-5.323,4.852-5.323c1.94,0,2.762,1.058,3.059,1.442v-1.119H-26.988z M-32.164,770.057
	c-1.313,0-2.655,0.884-2.655,2.954c0,1.872,1.146,2.842,2.675,2.842c1.382,0,2.628-0.754,2.655-2.735
	C-29.468,771.373-30.418,770.057-32.164,770.057z M-22.278,768.077v1.528c0.323-0.559,1.038-1.833,3.45-1.764v2.654
	c-0.56,0.02-1.529,0.041-2.332,0.648c-1.098,0.841-1.119,1.939-1.119,3.731v3.988h-2.5v-10.781h2.5V768.077z M-17.904,771.244
	c0.04-0.539,0.087-0.99,0.432-1.617c1.037-1.873,3.598-1.873,4.292-1.873c1.038,0,2.284,0.127,3.234,0.687
	c1.273,0.774,1.294,1.792,1.294,2.951v5.714c0,0.823,0,1.1,0.471,1.747h-3.06c-0.02-0.256-0.067-0.689-0.067-0.843
	c-0.559,0.472-1.705,1.099-3.193,1.099c-2.44,0-3.902-1.511-3.902-3.363c0-0.539,0.128-1.039,0.343-1.469
	c0.775-1.549,2.439-1.9,3.47-2.09c2.224-0.451,2.393-0.497,3.342-0.795c0-0.539-0.04-1.638-1.833-1.638
	c-1.078,0-1.658,0.344-1.921,0.688c-0.283,0.343-0.256,0.647-0.256,0.949L-17.904,771.244z M-11.247,773.488
	c-0.518,0.256-1.098,0.451-2.263,0.646c-0.93,0.129-2.157,0.343-2.157,1.489c0,0.841,0.715,1.274,1.745,1.274
	c1.314,0,2.244-0.607,2.521-1.255c0.147-0.322,0.147-0.646,0.147-0.971v-1.185H-11.247z M-3.518,769.931v4.872
	c0,1.333,0,1.921,1.227,1.921c0.392,0,0.715-0.021,1.079-0.13v2.177c-0.776,0.128-1.294,0.176-1.874,0.176
	c-0.539,0-2.352,0-2.843-1.313c-0.175-0.433-0.175-1.119-0.175-2.198v-5.498h-1.577v-1.859h1.577v-3.813h2.587v3.813h2.306v1.854
	H-3.518z M-0.027,765.092c0,0.796,0.633,1.434,1.415,1.434s1.409-0.638,1.409-1.434c0-0.795-0.634-1.436-1.409-1.436
	C0.606,763.656-0.027,764.297-0.027,765.092z M2.667,768.077v10.781H0.101v-10.781H2.667z M9.933,779.182
	c-3.363,0-5.607-2.458-5.607-5.754c0-3.295,2.285-5.674,5.499-5.674c2.999,0,5.566,2.089,5.587,5.674
	C15.405,776.783,13.188,779.182,9.933,779.182z M9.805,770.078c-1.618,0-2.783,1.295-2.783,3.276c0,2.223,1.361,3.448,2.912,3.448
	c1.873,0,2.823-1.637,2.762-3.43C12.648,771.587,11.61,770.078,9.805,770.078z M17.022,768.077h2.608v1.273
	c0.128-0.196,0.39-0.539,0.842-0.844c0.647-0.47,1.638-0.753,2.479-0.753c1.227,0,2.285,0.558,2.824,1.293
	c0.667,0.902,0.667,2.067,0.667,3.471v6.341h-2.567v-5.498c0-0.795,0-1.334-0.087-1.639c-0.236-0.95-0.93-1.442-1.766-1.442
	s-1.617,0.5-1.981,1.208c-0.411,0.795-0.411,1.9-0.411,2.694v4.677h-2.608V768.077z M28.039,777.383c0,0.816,0.64,1.476,1.422,1.476
	c0.789,0,1.422-0.659,1.422-1.476c0-0.815-0.64-1.476-1.422-1.476C28.679,775.901,28.039,776.561,28.039,777.383z M61.86,796.527
	c0,0.814,0.641,1.476,1.422,1.476c0.789,0,1.422-0.661,1.422-1.476c0-0.815-0.64-1.476-1.422-1.476
	C62.494,795.052,61.86,795.712,61.86,796.527z M12.756,815.685c0,0.816,0.641,1.476,1.422,1.476c0.788,0,1.421-0.659,1.421-1.476
	c0-0.815-0.64-1.476-1.421-1.476C13.389,814.203,12.756,814.869,12.756,815.685z M-50.29,782.788v15.222h-2.567v-1.038
	c-0.795,0.97-1.874,1.361-2.999,1.361c-2.567,0-4.784-1.921-4.784-5.479c0-3.213,1.812-5.949,4.892-5.949
	c1.057,0,2.069,0.303,2.891,1.207v-5.323H-50.29z M-53.458,790.287c-0.391-0.58-1.038-0.989-1.9-0.989
	c-1.745,0-2.588,1.575-2.588,3.273c0,0.195,0.021,3.431,2.547,3.431c1.334,0,2.547-0.99,2.52-3.323
	C-52.898,791.992-52.985,791.002-53.458,790.287z M-37.797,795.591c-1.334,1.792-3.059,2.735-5.263,2.735
	c-2.824,0-5.539-1.793-5.539-5.755c0-3.625,2.331-5.674,5.37-5.674c2.844,0,4.03,1.705,4.246,2.029
	c0.883,1.253,1.078,3.125,1.099,4.204h-7.979c0.303,1.704,1.361,2.676,3.059,2.676c1.766,0,2.479-1.038,2.804-1.49L-37.797,795.591z
	 M-40.728,791.237c-0.236-1.684-1.273-2.265-2.413-2.265c-1.381,0-2.331,0.796-2.627,2.265H-40.728z M-27.892,787.229l-3.537,10.781
	h-2.783l-3.491-10.781h2.675l2.244,7.42l2.197-7.42H-27.892z M-16.948,795.591c-1.334,1.792-3.059,2.735-5.263,2.735
	c-2.824,0-5.54-1.793-5.54-5.755c0-3.625,2.332-5.674,5.372-5.674c2.844,0,4.03,1.705,4.245,2.029
	c0.882,1.253,1.079,3.125,1.099,4.204h-7.979c0.303,1.704,1.361,2.676,3.059,2.676c1.766,0,2.48-1.038,2.804-1.49L-16.948,795.591z
	 M-19.878,791.237c-0.236-1.684-1.274-2.265-2.413-2.265c-1.381,0-2.332,0.796-2.627,2.265H-19.878z M-12.79,782.788v15.222h-2.608
	v-15.222H-12.79z M-5.546,798.333c-3.362,0-5.606-2.459-5.606-5.754c0-3.297,2.284-5.675,5.499-5.675
	c2.999,0,5.566,2.089,5.586,5.675C-0.068,795.935-2.292,798.333-5.546,798.333z M-5.674,789.229c-1.617,0-2.782,1.295-2.782,3.276
	c0,2.224,1.361,3.449,2.91,3.449c1.874,0,2.824-1.638,2.763-3.43C-2.83,790.739-3.868,789.229-5.674,789.229z M1.563,787.229h2.568
	v0.99c0.411-0.431,1.273-1.314,2.952-1.314c3.167,0,4.892,2.845,4.892,5.823c0,3.213-2.008,5.605-4.892,5.605
	c-1.49,0-2.413-0.714-2.952-1.206v4.4H1.563V787.229z M6.739,795.894c1.253,0,2.607-0.863,2.607-3.303
	c0-2.694-1.874-3.213-2.654-3.213c-1.187,0-2.547,0.862-2.588,3.166C4.063,794.774,5.296,795.894,6.739,795.894z M13.646,787.229
	h2.567v1.204c0.863-1.077,2.392-1.528,3.41-1.528c1.017,0,2.285,0.391,2.999,1.658c0.432-0.607,1.55-1.658,3.45-1.658
	c1.078,0,2.116,0.303,2.844,1.099c0.863,0.951,0.842,2.089,0.842,3.214v6.793H27.19v-5.95c0-1.011,0.148-2.717-1.812-2.717
	c-0.822,0-1.489,0.452-1.833,1.011c-0.499,0.796-0.559,1.659-0.559,2.589v5.067h-2.568v-6.018c0-0.775,0-1.058-0.087-1.381
	c-0.196-0.715-0.754-1.274-1.658-1.274c-0.775,0-1.53,0.451-1.981,1.253c-0.451,0.843-0.471,1.854-0.471,2.91v4.51h-2.567v-10.781
	H13.646z M42.177,795.591c-1.335,1.792-3.06,2.735-5.264,2.735c-2.824,0-5.539-1.793-5.539-5.755c0-3.625,2.331-5.674,5.371-5.674
	c2.843,0,4.03,1.705,4.245,2.029c0.883,1.253,1.078,3.125,1.099,4.204h-7.979c0.303,1.704,1.361,2.676,3.059,2.676
	c1.766,0,2.479-1.038,2.803-1.49L42.177,795.591z M39.246,791.237c-0.236-1.684-1.274-2.265-2.413-2.265
	c-1.381,0-2.331,0.796-2.628,2.265H39.246z M43.679,787.229h2.608v1.273c0.128-0.195,0.391-0.539,0.843-0.842
	c0.646-0.473,1.637-0.756,2.479-0.756c1.227,0,2.284,0.559,2.823,1.294c0.668,0.902,0.668,2.069,0.668,3.472v6.34h-2.568v-5.499
	c0-0.795,0-1.334-0.088-1.638c-0.236-0.949-0.93-1.44-1.766-1.44s-1.617,0.497-1.981,1.204c-0.411,0.796-0.411,1.901-0.411,2.695
	v4.678h-2.608V787.229z M58.188,789.081v4.872c0,1.333,0,1.921,1.227,1.921c0.39,0,0.714-0.021,1.078-0.128v2.175
	c-0.776,0.13-1.294,0.177-1.874,0.177c-0.539,0-2.352,0-2.843-1.314c-0.176-0.431-0.176-1.118-0.176-2.195v-5.501h-1.577v-1.853
	H55.6v-3.814h2.587v3.814h2.305v1.853h-2.305V789.081z M-59.023,813.967c0.647,0.795,1.617,1.381,3.107,1.381
	c1.489,0,2.135-0.734,2.135-1.273c0-0.687-0.774-0.862-1.118-0.93c-0.364-0.088-2.136-0.411-2.521-0.519
	c-2.567-0.607-3.039-2.089-3.039-3.059c0-1.833,1.658-3.512,4.616-3.512c1.638,0,2.823,0.519,3.558,1.039
	c0.539,0.343,0.883,0.714,1.099,0.97l-1.833,1.704c-0.303-0.58-1.038-1.638-2.931-1.638c-1.226,0-1.793,0.539-1.793,1.099
	c0,0.774,0.796,0.99,2.177,1.226c2.244,0.412,2.871,0.519,3.558,1.058c0.667,0.521,1.098,1.382,1.098,2.284
	c0,1.687-1.509,3.687-4.851,3.687c-1.921,0-3.814-0.605-5.176-1.919L-59.023,813.967z M-39.616,806.379v10.781h-2.588v-1.099
	c-0.451,0.433-1.509,1.362-3.49,1.362c-1.766,0-2.608-0.755-2.999-1.253c-0.735-0.932-0.735-1.94-0.735-3.559v-6.233h2.607v6.187
	c0,0.432,0,0.795,0.088,1.078c0.283,0.949,1.058,1.36,2.008,1.36c1.079,0,1.746-0.58,2.089-1.146
	c0.392-0.713,0.411-1.399,0.431-2.91v-4.568H-39.616z M-37.366,806.379h2.568v0.99c0.411-0.431,1.274-1.313,2.951-1.313
	c3.167,0,4.892,2.844,4.892,5.82c0,3.216-2.008,5.607-4.892,5.607c-1.489,0-2.412-0.714-2.951-1.205v4.399h-2.568V806.379z
	 M-32.19,815.044c1.253,0,2.607-0.861,2.607-3.3c0-2.697-1.873-3.216-2.655-3.216c-1.186,0-2.546,0.863-2.587,3.167
	C-34.859,813.927-33.632,815.044-32.19,815.044z M-25.269,806.379h2.566v0.99c0.411-0.431,1.274-1.313,2.952-1.313
	c3.167,0,4.891,2.844,4.891,5.82c0,3.216-2.008,5.607-4.891,5.607c-1.489,0-2.413-0.714-2.952-1.205v4.399h-2.566V806.379z
	 M-20.095,815.044c1.253,0,2.608-0.861,2.608-3.3c0-2.697-1.874-3.216-2.655-3.216c-1.187,0-2.547,0.863-2.588,3.167
	C-22.77,813.927-21.537,815.044-20.095,815.044z M-8.167,817.483c-3.363,0-5.607-2.458-5.607-5.754c0-3.295,2.285-5.674,5.499-5.674
	c2.999,0,5.566,2.089,5.587,5.674C-2.696,815.092-4.913,817.483-8.167,817.483z M-8.295,808.387c-1.617,0-2.783,1.294-2.783,3.275
	c0,2.223,1.361,3.451,2.912,3.451c1.874,0,2.823-1.638,2.762-3.433C-5.452,809.896-6.489,808.387-8.295,808.387z M0.565,806.379
	v1.529c0.324-0.558,1.038-1.832,3.451-1.765v2.655c-0.56,0.019-1.53,0.04-2.332,0.646c-1.099,0.843-1.119,1.941-1.119,3.733v3.988
	h-2.5v-10.781h2.5V806.379z M9.084,808.232v4.872c0,1.333,0,1.921,1.226,1.921c0.392,0,0.715-0.021,1.078-0.129v2.177
	c-0.774,0.128-1.293,0.175-1.873,0.175c-0.539,0-2.352,0-2.844-1.313c-0.175-0.431-0.175-1.119-0.175-2.197v-5.499H4.919v-1.854
	h1.576v-3.812h2.588v3.812h2.304v1.854H9.084V808.232z"/>
</svg>
